<?xml version="1.0" encoding="UTF-8"?>
<svg width="40px" height="43px" viewBox="0 0 40 43" version="1.1" xmlns="http://www.w3.org/2000/svg" xmlns:xlink="http://www.w3.org/1999/xlink">
    <!-- Generator: Sketch 64 (93537) - https://sketch.com -->
    <title>arrow-group</title>
    <desc>Created with Sketch.</desc>
    <g id="Page-1" stroke="none" stroke-width="1" fill="none" fill-rule="evenodd">
        <g id="option-1" transform="translate(-659.000000, -5052.000000)" fill="#FFFFFF" fill-rule="nonzero">
            <g id="noun_arrows_997728" transform="translate(659.000000, 5052.000000)">
                <path d="M18.75,4.26776688 L18.75,4.26776688 L15.0730156,7.94475188 C14.8312306,8.18653625 14.4341656,8.18416563 14.1878012,7.93780125 L13.3121987,7.06219875 C13.0620525,6.8120525 13.0628819,6.41935125 13.3056044,6.17662875 L19.1161163,0.36611625 C19.6042719,-0.12203875 20.3957281,-0.12203875 20.8838837,0.36611625 L26.6943956,6.17662875 C26.93998,6.42221313 26.9341656,6.81583438 26.6878012,7.06219875 L25.8121987,7.93780125 C25.5620525,8.1879475 25.1695106,8.1872775 24.9269844,7.94475188 L21.25,4.26776688 L21.25,38.1208131 C21.25,38.468725 20.9675562,38.75 20.6191444,38.75 L19.3808556,38.75 C19.0270956,38.75 18.75,38.4683038 18.75,38.1208131 L18.75,4.26776688 Z M5.625,16.7677669 L5.625,16.7677669 L1.94801562,20.4447519 C1.70623063,20.6865363 1.30916562,20.6841656 1.06280125,20.4378013 L0.18719875,19.5621988 C-0.0629475,19.3120525 -0.062118125,18.9193513 0.180604375,18.6766288 L5.99111625,12.8661163 C6.47927187,12.3779613 7.27072812,12.3779613 7.75888375,12.8661163 L13.5693956,18.6766288 C13.81498,18.9222131 13.8091656,19.3158344 13.5628012,19.5621988 L12.6871987,20.4378013 C12.4370525,20.6879475 12.0445106,20.6872775 11.8019844,20.4447519 L8.125,16.7677669 L8.125,41.873955 C8.125,42.218865 7.84255625,42.5 7.49414437,42.5 L6.25585562,42.5 C5.90209562,42.5 5.625,42.21971 5.625,41.873955 L5.625,16.7677669 Z M31.875,16.7677669 L31.875,16.7677669 L28.1980156,20.4447519 C27.9562306,20.6865363 27.5591656,20.6841656 27.3128012,20.4378013 L26.4371987,19.5621988 C26.1870525,19.3120525 26.1878819,18.9193513 26.4306044,18.6766288 L32.2411162,12.8661163 C32.7292719,12.3779613 33.5207281,12.3779613 34.0088837,12.8661163 L39.8193956,18.6766288 C40.06498,18.9222131 40.0591656,19.3158344 39.8128012,19.5621988 L38.9371987,20.4378013 C38.6870525,20.6879475 38.2945106,20.6872775 38.0519844,20.4447519 L34.375,16.7677669 L34.375,41.873955 C34.375,42.218865 34.0925562,42.5 33.7441444,42.5 L32.5058556,42.5 C32.1520956,42.5 31.875,42.21971 31.875,41.873955 L31.875,16.7677669 Z" id="arrow-group"></path>
            </g>
        </g>
    </g>
</svg>