<?xml version="1.0" encoding="UTF-8"?>
<svg width="40px" height="40px" viewBox="0 0 40 40" version="1.1" xmlns="http://www.w3.org/2000/svg" xmlns:xlink="http://www.w3.org/1999/xlink">
    <!-- Generator: Sketch 64 (93537) - https://sketch.com -->
    <title>fast</title>
    <desc>Created with Sketch.</desc>
    <g id="Page-1" stroke="none" stroke-width="1" fill="none" fill-rule="evenodd">
        <g id="option-1" transform="translate(-657.000000, -3547.000000)" fill="#FFFFFF" fill-rule="nonzero">
            <g id="noun_Circle_997729" transform="translate(657.000000, 3547.000000)">
                <path d="M0,20 C0,19.6453024 0,19.4106576 0,19.4106576 C0,19.0821065 0.265829412,18.8235294 0.593746471,18.8235294 L1.75919471,18.8235294 C2.09214529,18.8235294 2.35294118,19.0891041 2.35294118,19.4167071 L2.35294118,20 C2.35294118,29.7462012 10.2537988,37.6470588 20,37.6470588 L20.5932694,37.6470588 C20.9089259,37.6470588 21.1764706,37.9128882 21.1764706,38.2408053 L21.1764706,39.4062535 C21.1764706,39.7392041 20.91075,40 20.5829676,40 L20,40 C8.95430529,40 0,31.0456947 0,20 Z M40,20 L40,20.5864818 C40,20.9090641 39.7341706,21.1764706 39.4062535,21.1764706 L38.2408053,21.1764706 C37.9078547,21.1764706 37.6470588,20.9109418 37.6470588,20.5833953 C37.6470588,20.5833953 37.6470588,20.3407524 37.6470588,20 C37.6470588,10.2537988 29.7462012,2.35294118 20,2.35294118 C19.6532571,2.35294118 19.41405,2.35294118 19.41405,2.35294118 C19.0840812,2.35294118 18.8235294,2.08711176 18.8235294,1.75919471 L18.8235294,0.593746471 C18.8235294,0.260795882 19.08705,0 19.4121188,0 C19.4121188,0 19.7670088,0 20,0 C31.0456947,0 40,8.95430529 40,20 Z M20,28.2352941 C15.4517729,28.2352941 11.7647059,24.5482271 11.7647059,20 C11.7647059,15.4517729 15.4517729,11.7647059 20,11.7647059 C24.5482271,11.7647059 28.2352941,15.4517729 28.2352941,20 C28.2352941,24.5482271 24.5482271,28.2352941 20,28.2352941 Z" id="fast"></path>
            </g>
        </g>
    </g>
</svg>