<?xml version="1.0" encoding="UTF-8"?>
<svg width="40px" height="40px" viewBox="0 0 40 40" version="1.1" xmlns="http://www.w3.org/2000/svg" xmlns:xlink="http://www.w3.org/1999/xlink">
    <!-- Generator: Sketch 64 (93537) - https://sketch.com -->
    <title>life-saver</title>
    <desc>Created with Sketch.</desc>
    <g id="Page-1" stroke="none" stroke-width="1" fill="none" fill-rule="evenodd">
        <g id="option-1" transform="translate(-659.000000, -4594.000000)" fill="#FFFFFF" fill-rule="nonzero">
            <g id="noun_circles_997731" transform="translate(659.000000, 4594.000000)">
                <path d="M34.1797076,11.6264147 L33.1767176,12.2199465 C32.8901788,12.3895094 32.5265676,12.2990953 32.3548947,12.0237271 C32.3548947,12.0237271 32.3661088,12.0325335 32.2060159,11.7948835 C31.1315924,10.1999553 29.7526647,8.82676059 28.1529159,7.75898059 C27.9319741,7.61150941 27.9816212,7.64783353 27.9816212,7.64783353 C27.7063129,7.47509647 27.6130541,7.10548941 27.7800535,6.82328235 L28.3735853,5.82029235 C28.5431482,5.53375353 28.8992435,5.44706412 29.1746718,5.61699059 C29.1746718,5.61699059 29.1022029,5.56790118 29.3106459,5.70391294 C31.2549288,6.97257941 32.9241418,8.62696 34.2100706,10.5588388 C34.3767982,10.8093182 34.3804082,10.8234735 34.3804082,10.8234735 C34.5534041,11.1007341 34.4619147,11.4594153 34.1797076,11.6264147 Z M20,8.23529412 C17.7258864,8.23529412 15.8823529,6.39176059 15.8823529,4.11764706 C15.8823529,1.84353353 17.7258864,0 20,0 C22.2741136,0 24.1176471,1.84353353 24.1176471,4.11764706 C24.1176471,6.39176059 22.2741136,8.23529412 20,8.23529412 Z M20,40 C17.7258864,40 15.8823529,38.1564665 15.8823529,35.8823529 C15.8823529,33.6082394 17.7258864,31.7647059 20,31.7647059 C22.2741136,31.7647059 24.1176471,33.6082394 24.1176471,35.8823529 C24.1176471,38.1564665 22.2741136,40 20,40 Z M4.11764706,24.1176471 C1.84353341,24.1176471 0,22.2741135 0,20 C0,17.7258865 1.84353341,15.8823529 4.11764706,15.8823529 C6.39176071,15.8823529 8.23529412,17.7258865 8.23529412,20 C8.23529412,22.2741135 6.39176071,24.1176471 4.11764706,24.1176471 Z M35.8823529,24.1176471 C33.6082394,24.1176471 31.7647059,22.2741135 31.7647059,20 C31.7647059,17.7258865 33.6082394,15.8823529 35.8823529,15.8823529 C38.1564665,15.8823529 40,17.7258865 40,20 C40,22.2741135 38.1564665,24.1176471 35.8823529,24.1176471 Z M28.3735853,34.1797076 L27.7800535,33.1767176 C27.6104906,32.8901788 27.7012135,32.5258335 27.9769635,32.3532541 C27.9769635,32.3532541 28.0265335,32.3286241 28.2918006,32.1471724 C29.8294059,31.0953976 31.1573988,29.75915 32.1996476,28.2145624 C32.3620435,27.9738947 32.3554588,27.9751876 32.3554588,27.9751876 C32.5286141,27.6996594 32.8945106,27.6130541 33.1767176,27.7800535 L34.1797076,28.3735853 C34.4662465,28.5431482 34.5525771,28.8984094 34.3822076,29.1728094 C34.3822076,29.1728094 34.3572965,29.22167 34.1796088,29.4867653 C32.9315953,31.3487 31.3267247,32.9508982 29.46254,34.1958165 C29.2052041,34.3676676 29.1742535,34.3815876 29.1742535,34.3815876 C28.8983912,34.5538206 28.5405847,34.4619147 28.3735853,34.1797076 Z M5.82029218,28.3735853 L6.82328253,27.7800535 C7.10982124,27.6104906 7.47438159,27.7019153 7.64722594,27.9785306 C7.64722594,27.9785306 7.65543188,28.0014665 7.82776553,28.2550429 C8.87040418,29.7892076 10.1956206,31.1161994 11.7282828,32.1608859 C11.9871659,32.3373441 12.0271631,32.3561688 12.0271631,32.3561688 C12.2975114,32.5264612 12.3869461,32.8945106 12.2199466,33.1767176 L11.6264146,34.1797076 C11.4568518,34.4662465 11.1001905,34.5517394 10.824064,34.3803371 C10.824064,34.3803371 10.7840945,34.3609294 10.5217136,34.1852888 C8.62795024,32.9175794 7.00249871,31.2808676 5.74786135,29.3776547 C5.59619918,29.1475918 5.61987071,29.1781241 5.61987071,29.1781241 C5.44675259,28.9001182 5.53808518,28.5405847 5.82029218,28.3735853 Z M11.6264146,5.82029235 L12.2199466,6.82328235 C12.3895094,7.10982118 12.3007805,7.47246059 12.0274904,7.64293588 C12.0274904,7.64293588 12.0210817,7.64113529 11.7780587,7.80533471 C10.2294355,8.85166882 8.89054529,10.1853665 7.83821659,11.7296 C7.66208447,11.9880641 7.64328612,12.0279894 7.64328612,12.0279894 C7.47329494,12.2978876 7.10548953,12.3869459 6.82328253,12.2199465 L5.82029218,11.6264147 C5.53375341,11.4568518 5.44932994,11.0983306 5.62205182,10.81991 C5.62205182,10.81991 5.63079253,10.7972429 5.80177871,10.5410618 C7.05672694,8.66082588 8.67506818,7.04423059 10.5567709,5.79130647 C10.8079137,5.62408412 10.8221153,5.62047294 10.8221153,5.62047294 C11.1001263,5.44698412 11.4594152,5.53808529 11.6264146,5.82029235 Z" id="life-saver"></path>
            </g>
        </g>
    </g>
</svg>