<?xml version="1.0" encoding="UTF-8"?>
<svg width="40px" height="41px" viewBox="0 0 40 41" version="1.1" xmlns="http://www.w3.org/2000/svg" xmlns:xlink="http://www.w3.org/1999/xlink">
    <!-- Generator: Sketch 64 (93537) - https://sketch.com -->
    <title>node</title>
    <desc>Created with Sketch.</desc>
    <g id="Page-1" stroke="none" stroke-width="1" fill="none" fill-rule="evenodd">
        <g id="option-1" transform="translate(-659.000000, -5536.000000)" fill="#FFFFFF" fill-rule="nonzero">
            <g id="noun_Network_14181" transform="translate(659.000000, 5536.000000)">
                <path d="M36.7816092,17.3563218 C35.1609195,17.3563218 33.8229885,18.3908046 33.5995402,20.2298851 L24.8275862,20.2298851 C24.8275862,18.8505747 24.5425287,18.2947126 24.0547126,17.5650575 L31.3282759,10.234023 C31.5931034,10.3402299 31.8804598,10.3737931 32.1834483,10.3737931 C33.4533333,10.3737931 34.4822989,9.33011494 34.4822989,8.06068966 C34.4822989,6.79126437 33.4533333,5.75448276 32.1834483,5.75448276 C30.9135632,5.75448276 29.8845977,6.77977011 29.8845977,8.04965517 C29.8845977,8.64229885 30.1149425,9.17517241 30.4832184,9.58298851 L23.3944828,16.6712644 C22.6744828,15.9866667 21.7351724,15.5296552 20.6896552,15.4257471 L20.6896552,6.62988506 C22.2487356,6.40643678 23.4482759,5.06942529 23.4482759,3.44827586 C23.4482759,1.6708046 22.0073563,0.229885057 20.2298851,0.229885057 C18.4524138,0.229885057 17.0114943,1.6708046 17.0114943,3.44827586 C17.0114943,5.06942529 18.2110345,6.40643678 19.7701149,6.62988506 L19.7701149,15.4252874 C18.7885057,15.5227586 17.9006897,15.931954 17.1990805,16.5485057 L10.3397701,9.68965517 C10.7673563,9.27218391 11.0344828,8.69103448 11.0344828,8.04597701 C11.0344828,6.77609195 10.0055172,5.74712644 8.73563218,5.74712644 C7.46574713,5.74712644 6.43678161,6.77609195 6.43678161,8.04597701 C6.43678161,9.31586207 7.46574713,10.3448276 8.73563218,10.3448276 C9.02022989,10.3448276 9.29011494,10.2864368 9.5416092,10.1917241 L16.5724138,17.3374713 C15.9848276,18.1094253 15.6321839,18.8505747 15.6321839,20.2298851 L6.4,20.2298851 C6.17655172,18.3908046 4.83908046,17.3563218 3.2183908,17.3563218 C1.44091954,17.3563218 8.16715788e-16,18.7397701 8.16715788e-16,20.5172414 C8.16715788e-16,22.2951724 1.44091954,23.822069 3.2183908,23.822069 C4.83954023,23.822069 6.17655172,22.5287356 6.4,21.1494253 L15.7241379,21.1494253 C15.8988506,21.6091954 16.3172414,22.6666667 16.8997701,23.2795402 L10.2703448,29.8514943 C9.86298851,29.4832184 9.32827586,29.2243678 8.73563218,29.2243678 C7.46574713,29.2243678 6.43678161,30.2390805 6.43678161,31.5089655 C6.43678161,32.7788506 7.46574713,33.8004598 8.73563218,33.8004598 C10.0055172,33.8004598 11.0344828,32.7678161 11.0344828,31.497931 C11.0344828,31.1949425 10.9724138,30.9052874 10.8662069,30.6409195 L17.68,23.8262069 C18.2896552,24.2335632 19.0018391,24.4983908 19.7701149,24.5747126 L19.7701149,33.8298851 C18.2110345,34.0533333 17.0114943,35.3912644 17.0114943,37.011954 C17.0114943,38.7898851 18.4524138,40.2303448 20.2298851,40.2303448 C22.0073563,40.2303448 23.4482759,38.7898851 23.4482759,37.011954 C23.4482759,35.3912644 22.2487356,34.0533333 20.6896552,33.8298851 L20.6896552,24.5747126 C21.5572414,24.4882759 22.3498851,24.1581609 23.0078161,23.657931 L30.0381609,30.6882759 C29.9434483,30.9397701 29.8850575,31.2096552 29.8850575,31.4942529 C29.8850575,32.7641379 30.914023,33.7931034 32.183908,33.7931034 C33.4537931,33.7931034 34.4827586,32.7641379 34.4827586,31.4942529 C34.4827586,30.2243678 33.4537931,29.1954023 32.183908,29.1954023 C31.5393103,29.1954023 30.9581609,29.4625287 30.5406897,29.8901149 L23.6813793,23.1457471 C24.2,22.5558621 24.5728736,21.6091954 24.7351724,21.1494253 L33.5995402,21.1494253 C33.8229885,22.5287356 35.1609195,23.7931034 36.7816092,23.7931034 C38.5590805,23.7931034 40,22.3526437 40,20.5747126 C40,18.7972414 38.5590805,17.3563218 36.7816092,17.3563218 Z" id="node"></path>
            </g>
        </g>
    </g>
</svg>