<?xml version="1.0" encoding="UTF-8"?>
<svg width="42px" height="41px" viewBox="0 0 42 41" version="1.1" xmlns="http://www.w3.org/2000/svg" xmlns:xlink="http://www.w3.org/1999/xlink">
    <!-- Generator: Sketch 64 (93537) - https://sketch.com -->
    <title>technology</title>
    <desc>Created with Sketch.</desc>
    <g id="Page-1" stroke="none" stroke-width="1" fill="none" fill-rule="evenodd">
        <g id="option-1" transform="translate(-658.000000, -4225.000000)" fill="#FFFFFF" fill-rule="nonzero" stroke="#FFFFFF" stroke-width="0.6">
            <g id="noun_Network_20527" transform="translate(659.000000, 4226.000000)">
                <path d="M24.7250872,0.00622162764 C24.7614145,0.00740493214 24.7909219,0.0110540947 24.8200247,0.0172735416 C24.8281009,0.0192831943 24.836244,0.0212440852 24.8443311,0.0234017106 C24.8676109,0.0292685821 24.8906487,0.0371581377 24.9131668,0.0467504267 C24.9202362,0.050112753 24.9273238,0.0533210131 24.9343383,0.0566906169 C24.9555728,0.0665658895 24.9762776,0.078350777 24.9962843,0.0917121278 C25.0069433,0.0990276414 25.0177677,0.106840329 25.0282979,0.115091871 C25.0365389,0.121410392 25.0443179,0.127905832 25.0519509,0.134671126 L33.2619292,7.4037765 C33.6242924,7.1369387 34.0719937,6.97926421 34.5565217,6.97926421 C35.7635441,6.97926421 36.742029,7.95774914 36.742029,9.16477146 C36.742029,9.96712971 36.3096544,10.6685015 35.6651927,11.0485992 L40.5823857,26.6666667 C40.6309922,26.8218506 40.6033445,26.9917503 40.5065775,27.122854 C40.4098105,27.2552954 40.2564103,27.3328874 40.0931996,27.3328874 L25.4870505,27.3319485 L20.9352025,35.8703385 C21.3483528,36.2382049 21.6209326,36.760554 21.6622952,37.3467389 L21.6677815,37.5027871 C21.6677815,38.7095631 20.6894962,39.6878484 19.4827202,39.6878484 C18.2759441,39.6878484 17.2976589,38.7095631 17.2976589,37.5027871 L17.3010505,37.6189485 L5.99545014,35.5226342 C5.67458636,36.2406613 4.97771935,36.7538642 4.15518814,36.8119039 L3.99910814,36.8173913 C2.79208582,36.8173913 1.81360089,35.8389064 1.81360089,34.6318841 C1.81360089,33.8199022 2.25640958,33.111344 2.91371752,32.7345186 L0.0205128205,22.7772575 L0.0149264974,22.7570101 C0.010693234,22.7398949 0.00733091416,22.7224943 0.00488057893,22.7048685 L0.0205128205,22.7772575 C0.00886482277,22.7369178 0.00233267241,22.6960352 0.000641503262,22.6554122 C-2.92209182e-05,22.6435744 -9.56003631e-05,22.6314794 0.000274233049,22.6193265 C0.00094692728,22.6006385 0.00249299677,22.582139 0.00502169786,22.5638235 C0.00593715667,22.5570078 0.00712196855,22.5496335 0.00847268673,22.542252 L2.16187291,10.7830546 C2.19576366,10.5957637 2.33177258,10.4428094 2.51326644,10.3857302 C2.69520624,10.329097 2.89409142,10.3777035 3.02831661,10.5128205 L7.46570668,14.9504803 C7.81361215,14.7166184 8.23245289,14.5801561 8.68316611,14.5801561 C9.25078014,14.5801561 9.76784412,14.7965865 10.1563353,15.1514247 L13.1500505,13.0239485 L9.66867336,3.25440357 C9.65261593,3.20891627 9.64340454,3.16486518 9.64017972,3.11946318 C9.63440066,3.04322168 9.64614418,2.96793755 9.67279591,2.89861857 C9.67797461,2.88585925 9.68338661,2.87332226 9.68927334,2.86104842 C9.70766371,2.82202583 9.73121448,2.78540261 9.75918081,2.75212024 C9.77411938,2.73539486 9.78360703,2.72533575 9.79348954,2.7156691 C9.82293222,2.68625067 9.85740155,2.65990831 9.89545337,2.63803289 C9.92293157,2.62251335 9.95000896,2.60996722 9.97829873,2.59981071 C9.97878193,2.59958273 9.97913445,2.59945674 9.97948718,2.5993311 L10.0007249,2.59234136 C10.0207636,2.58617902 10.0413568,2.58119701 10.0624303,2.57748049 L24.6234114,0.0138238573 C24.6623546,0.0074548884 24.6935985,0.00535214209 24.72482,0.00608888338 L24.7250872,0.00622162764 Z M16.9794722,28.2742822 L6.1149566,34.0823863 C6.16042401,34.2579584 6.18461538,34.4420962 6.18461538,34.6318841 L6.18005052,34.5139485 L17.4872393,36.6112039 C17.7367975,36.0535101 18.2132834,35.619543 18.7992556,35.4267441 L18.2719375,28.9798189 C17.7609096,28.900133 17.3085167,28.6433829 16.9794722,28.2742822 Z M24.3240505,27.3319485 L20.7364638,27.3329754 C20.5592749,28.0704066 20.0082129,28.6623072 19.2949753,28.8969795 L19.8210792,35.343765 C19.8919404,35.3547807 19.9616751,35.3692014 20.0301107,35.3868547 L24.3240505,27.3319485 Z M13.1920505,22.1269485 L5.62303671,33.1692227 C5.62570151,33.1721794 5.62835834,33.1751434 5.63100717,33.1781147 L16.4955228,27.3700106 C16.4500554,27.1944384 16.425864,27.0103007 16.425864,26.8205128 C16.425864,26.4031389 16.5428608,26.0130911 16.7458474,25.6813765 L13.1920505,22.1269485 Z M7.28904583,18.4478268 L1.10680045,22.8410256 L3.89905052,32.4489485 L3.99910814,32.4463768 C4.27337916,32.4463768 4.53585006,32.4968991 4.777722,32.589145 L12.4550505,21.3889485 L9.74213687,18.6769759 C9.47127904,18.8273316 9.16511238,18.9217963 8.83921427,18.9447924 L8.68316611,18.9502787 C8.15323402,18.9502787 7.66736307,18.7616305 7.28904583,18.4478268 Z M32.1570505,12.6419485 L20.4184054,25.5908795 C20.5647986,25.8055986 20.6739213,26.0477587 20.7364638,26.3080503 L24.8700505,26.3079485 L32.1570505,12.6419485 Z M34.042051,11.2893804 L26.0330505,26.3079485 L39.3944259,26.3081382 L34.6830505,11.3449485 L34.5565217,11.3502787 C34.3793145,11.3502787 34.2070332,11.3291882 34.042051,11.2893804 Z M25.0117023,7.35785773 C24.7319701,8.05551443 24.1028979,8.57542331 23.3408984,8.70117194 L19.5913675,24.8665092 C19.6141989,24.8779824 19.6368016,24.8898439 19.6591668,24.9020851 L32.7770197,10.4338495 C32.5214138,10.0760796 32.3710145,9.63798936 32.3710145,9.16477146 L32.3720505,9.21294849 Z M15.2990505,19.0539485 L13.7820505,21.2659485 L17.3640505,24.8479485 L15.2990505,19.0539485 Z M22.2330505,8.93894849 L16.0150505,18.0089485 L18.3808414,24.6470191 C18.4055379,24.6444301 18.4303568,24.6422524 18.4552912,24.640493 L18.5910505,24.6359485 L22.2330505,8.93894849 Z M2.99487179,11.9286511 L1.24405052,21.4849485 L6.67458517,17.626926 C6.58048117,17.4078653 6.52116549,17.1703275 6.5035911,16.9212655 L6.49810479,16.7652174 C6.49810479,16.3807215 6.59741539,16.0194208 6.77178515,15.7055668 L2.99487179,11.9286511 Z M13.5080505,14.0279485 L10.7312737,16.0021057 C10.8198257,16.2396704 10.8682274,16.4967915 10.8682274,16.7652174 C10.8682274,17.2155005 10.7320254,17.633972 10.4985724,17.9816807 L13.0450505,20.5289485 L14.8740505,17.8609485 L13.5080505,14.0279485 Z M21.2931996,8.49632107 L14.3760505,13.4109485 L15.5900505,16.8159485 L21.2931996,8.49632107 Z M10.9560505,3.81294849 L14.0180505,12.4059485 L20.9929044,7.45087361 C20.8874611,7.21969004 20.821129,6.96691537 20.8023659,6.70100754 L20.7968785,6.54492754 C20.7968785,6.46157817 20.8015443,6.37931856 20.810629,6.29839566 L10.9560505,3.81294849 Z M25.0160505,1.47294849 L24.2524897,4.7661589 C24.7535542,5.12457614 25.0968533,5.68944457 25.1580793,6.33645661 L32.5902309,8.2096196 C32.5937903,8.20230586 32.5973893,8.19501494 32.6010276,8.18774712 L25.0160505,1.47294849 Z M24.0379041,1.1580825 L12.6028986,3.17146042 L21.1652719,5.33020973 C21.5573826,4.74480769 22.2248781,4.35942029 22.9823857,4.35942029 C23.0866582,4.35942029 23.1892251,4.36672264 23.2896029,4.38084385 L24.0379041,1.1580825 Z" id="technology"></path>
            </g>
        </g>
    </g>
</svg>