<?xml version="1.0" encoding="utf-8"?>
<!-- Generator: Adobe Illustrator 22.1.0, SVG Export Plug-In . SVG Version: 6.00 Build 0)  -->
<svg version="1.1" id="Layer_1" xmlns="http://www.w3.org/2000/svg" xmlns:xlink="http://www.w3.org/1999/xlink" x="0px" y="0px"
	 viewBox="0 0 553.9 121" style="enable-background:new 0 0 553.9 121;" xml:space="preserve">
<style type="text/css">
	.st0{fill:#FFFFFF;}
</style>
<title>KUSAMA_logo_1</title>
<g>
	<path class="st0" d="M27.3,32.6C27.3,32.6,27.3,32.6,27.3,32.6c-7.1,0-12.9,5.8-12.9,12.9v62.4c-0.1,7.1,5.5,13,12.6,13.2
		c7.1,0.1,13-5.5,13.2-12.6c0-0.2,0-0.4,0-0.5V45.5C40.2,38.4,34.4,32.6,27.3,32.6z"/>
	<path class="st0" d="M72.7,76.6l19.1-22.9c4.5-5.5,3.8-13.6-1.7-18.1C84.7,31,76.5,31.8,72,37.2c0,0,0,0,0,0L46,68.4
		c-4,4.8-4,11.7,0,16.5l26,31.2c4.6,5.5,12.7,6.2,18.2,1.6c5.5-4.6,6.2-12.7,1.6-18.2L72.7,76.6z"/>
	<path class="st0" d="M211.9,58.4h41.4c7.1,0,12.9-5.8,12.9-12.9c0-7.1-5.8-12.9-12.9-12.9c0,0,0,0,0,0h-46.8
		c-3.4,0-6.7,1.4-9.1,3.8l-7.8,7.8c-2.4,2.4-3.8,5.7-3.8,9.1v46.8c0,3.4,1.4,6.7,3.8,9.1l7.8,7.8c2.4,2.4,5.7,3.8,9.1,3.8h46.8
		c7.1,0,12.9-5.8,12.9-12.9S260.5,95,253.4,95c0,0,0,0,0,0h-41.4l-0.2-0.2V58.6L211.9,58.4z"/>
	<path class="st0" d="M438.1,33.8c-4.6-2.1-9.9-1.4-13.8,1.9l-18.9,16.2l-18.9-16.2c-5.4-4.6-13.5-4-18.2,1.4
		c-2,2.3-3.1,5.3-3.1,8.4v62.4c0,7.1,5.8,12.9,12.9,12.9c7.1,0,12.9-5.8,12.9-12.9V73.5l6.1,5.2c4.8,4.1,11.9,4.1,16.8,0l6-5.2v34.4
		c-0.1,7.1,5.5,13,12.6,13.2c7.1,0.1,13-5.5,13.2-12.6c0-0.2,0-0.4,0-0.5V45.5C445.6,40.5,442.7,35.9,438.1,33.8z"/>
	<path class="st0" d="M167.6,32.6C167.6,32.6,167.6,32.6,167.6,32.6c-7.1,0-12.9,5.8-12.9,12.9v23.7c-0.4-0.6-0.9-1.1-1.4-1.7
		l-31.2-31.2c-5.2-4.8-13.4-4.5-18.2,0.7c-4.6,4.9-4.6,12.6,0,17.5l31.2,31.2c5,5,13.2,5,18.2,0c0.5-0.5,1-1.1,1.4-1.7V95h-41.7
		c-7.1,0-12.9,5.8-12.9,12.9c0,7.1,5.8,12.9,12.9,12.9c0,0,0,0,0,0h54.6c7.1,0,12.9-5.8,12.9-12.9V45.5
		C180.5,38.4,174.7,32.6,167.6,32.6z"/>
	<path class="st0" d="M317.8,37.2c-2.4-2.9-6.1-4.6-9.9-4.6h-23.4c-7.1,0-12.9,5.8-12.9,12.9c0,0,0,0,0,0v62.4
		c0,7.1,5.8,12.9,12.9,12.9h32.3c7.1-0.1,12.8-6,12.6-13.2c-0.1-6.9-5.7-12.5-12.6-12.6h-19.4V58.4h4.5L334,96.9v10.9
		c0.1,7.1,6,12.8,13.2,12.6c6.9-0.1,12.5-5.7,12.6-12.6V92.3c0-3-1-6-3-8.3L317.8,37.2z"/>
	<path class="st0" d="M536.1,84l-39-46.8c-2.4-2.9-6.1-4.6-9.9-4.6h-23.4c-7.1,0-12.9,5.8-12.9,12.9c0,0,0,0,0,0v62.4
		c0,7.1,5.8,12.9,12.9,12.9h32.3c7.1-0.1,12.8-6,12.6-13.2c-0.1-6.9-5.7-12.5-12.6-12.6h-19.4V58.4h4.5l32.1,38.6v10.9
		c0.1,7.1,6,12.8,13.2,12.6c6.9-0.1,12.5-5.7,12.6-12.6V92.3C539.1,89.2,538,86.3,536.1,84z"/>
	<path class="st0" d="M177.3,0c-1.5-0.2-3,0.8-4,1.4c-1,0.7-2.9,2.6-3.7,3.2c-0.8,0.6-2.8,1.1-6.1,3.1c-3.2,2-16.1,10.2-16.1,10.2
		l3.3,0l-14.8,7.7h1.5l-2.1,1.7c1.2,0.3,2.4,0.1,3.5-0.5v0.5c0,0,17.7-7,21.1-5.2l-2.1,0.6c0.2,0,3.6,0.2,3.6,0.2
		c0.2,1.4,0.9,2.7,2.1,3.4c2,1.3,2.1,2.1,2.1,2.1s-1.1,0.4-1.1,1c1.9-0.6,3.9-0.6,5.7,0c0,0-0.1-0.6-1.5-1c-1.4-0.4-2.8-1.9-3.5-2.8
		c-0.8-1.1-1.1-2.5-0.6-3.8c0.5-1.3,2.2-2,5.7-3.8c4.1-2.1,5.1-3.7,5.7-5c0.6-1.2,1.5-3.7,1.9-4.9c0.4-1.1,1.1-2,2-2.8
		c0.6-0.5,3.4-1.5,3.4-1.5s-2.1-1.8-2.8-2.4C179.6,0.8,178.5,0.2,177.3,0z"/>
</g>
</svg>
