<?xml version="1.0" encoding="utf-8"?>
<!-- Generator: Adobe Illustrator 22.1.0, SVG Export Plug-In . SVG Version: 6.00 Build 0)  -->
<svg version="1.1" id="Layer_1" xmlns="http://www.w3.org/2000/svg" xmlns:xlink="http://www.w3.org/1999/xlink" x="0px" y="0px"
	 viewBox="0 0 553.9 121" style="enable-background:new 0 0 553.9 121;" xml:space="preserve">
<style type="text/css">
	.st0{fill:#FFFFFF;}
</style>
<title>KUSAMA_logo_1</title>
<title>KUSAMA_logo_2</title>
<g>
	<path class="st0" d="M308.3,43.9h-6.3c-0.5,0.1-0.9-0.3-1-0.7c0-0.1,0-0.2,0-0.3v-5.8c0-0.1,0-0.2,0-0.3
		c0.1-6.1-4.7-11.1-10.8-11.2c-6.1-0.1-11.1,4.7-11.2,10.8c0,0.1,0,0.3,0,0.4v6c0.1,0.5-0.3,0.9-0.7,1c-0.1,0-0.2,0-0.3,0h-20.5
		c-0.5,0.1-0.9-0.3-1-0.7c0-0.1,0-0.2,0-0.3v-6.6c0-5.8-4.7-10.4-10.4-10.4c-5.8,0-10.4,4.7-10.4,10.4v6.6c0,0.7-0.3,1-0.9,1h-6.5
		c-5.3,0.1-9.5,4.5-9.4,9.8c0.1,5.1,4.2,9.3,9.4,9.4c0.2,0,0.3,0,0.5,0h6c0.6,0,0.9,0.3,0.9,1V73c0,5.8,4.7,10.4,10.4,10.4
		c5.6,0,10.2-4.4,10.4-10v-9.3c-0.1-0.5,0.3-0.9,0.7-1c0.1,0,0.2,0,0.3,0h20.5c0.5-0.1,0.9,0.3,1,0.7c0,0.1,0,0.2,0,0.3v4.6
		c0,5.8-0.5,10.5-1.5,14.1c-0.9,3.6-2.8,6.8-5.3,9.5c-2.6,2.7-5.9,4.7-10.1,6.1c-4.2,1.4-8.6,2.3-12.9,2.9
		c-5.3,1.1-8.7,6.3-7.6,11.6c1,4.5,5,7.8,9.6,7.8c0.2,0,0.5,0,0.7,0c17.1-2.3,29.5-7.3,37.1-15.1c7.9-8.2,11.9-20.5,11.9-36.9v-4.6
		c-0.1-0.5,0.3-0.9,0.7-1c0.1,0,0.2,0,0.3,0h6.3c5.2,0,9.5-4.2,9.6-9.4v-0.3C317.7,48.2,313.5,43.9,308.3,43.9z"/>
	<path class="st0" d="M409.7,33.5c-1.2-1.2-2.8-1.9-4.5-1.9h-76.7c-5.4,0.1-9.8,4.6-9.7,10.1c0.1,5.3,4.4,9.5,9.7,9.7h58.2
		c0.2,0,0.4,0.1,0.6,0.3c0.2,0.2,0.2,0.4,0,0.6c-5.6,9.7-14.8,18.2-27.6,25.5c-0.5,0.4-1,0.3-1.5-0.3c-1.3-1.7-2.4-3.2-3.3-4.5
		c-3.5-4.8-10.1-6-15.1-2.8l-0.4,0.3c-5,3.5-6.2,10.4-2.7,15.5c7.2,9.8,13.9,19.4,20.4,28.8c3.9,4.9,11,5.6,15.8,1.8
		c4.4-3.5,5.5-9.8,2.6-14.6c-1-1.4-2.1-3.1-3.4-4.9c-0.4-0.5-0.3-0.9,0.3-1.2c9.2-5.4,16.8-11.2,22.6-17.3
		c5.9-6.2,10.7-13.3,14.2-21.1c1.7-3.9,2.5-8.1,2.5-12.4V38C411.6,36.3,410.9,34.6,409.7,33.5z"/>
	<path class="st0" d="M207.9,36.1h-39.2c0,0-3.4,0.1-3.4-0.1c-0.4-5.7-5.3-9.9-10.9-9.6c-4.4,0.3-8.1,3.3-9.2,7.6c0,0,0,0.1,0,0.1
		c-3,11.8-8.5,22.8-16.1,32.3c-2.9,4.3-2.1,10.2,1.8,13.5l0.2,0.1c4,3.3,9.9,3,13.6-0.6c6.2-7,11.3-14.9,15.2-23.3
		c0.2-0.6,0.8-0.9,1.4-0.9h28.8c0.7,0,1,0.3,0.9,0.9c-1.7,14.7-6.3,25.4-13.9,32.1c-7.1,6.3-18,10.6-32.8,13
		c-5.4,0.8-9.1,5.8-8.3,11.1c0.7,4.8,4.8,8.4,9.7,8.4c0.5,0,1,0,1.4-0.1c0.1,0,0.3,0,0.4,0c22.4-3.1,38.9-10.4,49.5-22
		c11.1-12.2,16.9-30.9,17.2-56.1c0-1.7-0.6-3.4-1.9-4.6C211.2,36.7,209.6,36,207.9,36.1z"/>
	<path class="st0" d="M222.7,21.2v0.4c0,0,14.2-5.6,17-4.1l-1.7,0.5c0.1,0,2.9,0.2,2.9,0.2c0.1,1.1,0.8,2.1,1.7,2.8
		c1.6,1.1,1.7,1.7,1.7,1.7s-0.8,0.3-0.8,0.8c1.5-0.5,3.1-0.5,4.6,0c0,0-0.1-0.4-1.2-0.8c-1.1-0.3-2.2-1.5-2.8-2.2
		c-0.7-0.9-0.8-2-0.4-3.1c0.4-1,1.8-1.6,4.6-3c3.3-1.7,4.1-3,4.5-4c0.5-1,1.2-3,1.5-3.9c0.3-0.9,0.9-1.6,1.6-2.2
		c0.9-0.5,1.8-0.9,2.7-1.2c0,0-1.7-1.5-2.3-1.9c-0.7-0.7-1.6-1.1-2.5-1.2c-1.2-0.2-2.4,0.6-3.2,1.2c-0.8,0.5-2.3,2.1-3,2.5
		c-0.7,0.4-2.3,0.9-4.9,2.5c-2.6,1.6-12.9,8.2-12.9,8.2l2.7,0l-11.9,6.2h1.2l-1.7,1.3C220.8,21.8,221.8,21.7,222.7,21.2z"/>
</g>
</svg>
