<svg id="Layer_1" data-name="Layer 1" xmlns="http://www.w3.org/2000/svg" viewBox="0 0 1199 263" fill="#fff"><path d="M475.8,113.8,490,93.2c6.2-9,9.3-17.2,9.3-24.8v-.6H475.5V69c0,3.9-2.2,9.7-6.6,17.3-8.5,15-13.7,24.4-15.7,28H453v-.2c.3-8.6.4-16.6.4-24V67.8H430.1V172.4h10.6v4H430.1v9.3c0,.3.1.4.4.4h22.6c.2,0,.3-.2.3-.4v-5.9H452V152.7h1.4V147h11l3.1,9h3v17h5.2v13c3.6.1,6.3.2,8.3.2h5.8c1.9,0,4.9-.1,9-.2V166.7h-3.6V156h-2.5c-1.6-2.8-3.1-5.8-4.4-8.7V147h14.1v-3.6H489.9ZM453.2,147H439.7v-3.6h14.5A24.18,24.18,0,0,0,453.2,147Zm34.8,0H464.4v-3.5h-10a108,108,0,0,0,7.9-12h.2c2.5,7.7,3.8,11.7,3.8,12H488ZM243.8,186.2h26.6v-2H243.8ZM142,138.1h10.5v-3H142Zm433.1-4.3v-3.4H562.2v3.4Zm-441.3,1.3H142V67.9H122.1V115H98.4V67.9H75v56.6h3.3v61.6H98.1c.2,0,.3-.2.3-.4V134.6h23.7v51.2c0,.2.2.3.4.3H142V138h-8.2Zm46.4-2.7v3.5h15.5v-3.5Zm63.6,50.3h22v-8.3h-8.2v-3h8.2V132.5h-3.5L242.8,68H222.9l-20.4,67.9h-6.8V169h-8.2v16H186v1.2h20V169h10.9V158.8h26.9v23.9Zm-3-36.8H222.3q7.35-30.45,9.9-44.4v-.2h.4l6.6,31.3h1.6ZM384.9,91.3v.2H373.8V88.4h10.4c0-.8-.6-2.5-1.8-5C378.1,73.1,367.7,68,351.2,68q-19.2,0-29.1,9a34.85,34.85,0,0,0-7.9,14c-1.8,4.7-2.6,16-2.6,34,0,4,.1,9.4.2,16.3H308V158h7.2v13.5h16.7v4H320.8v9.2h16.8v1.6H354v-1.6h21.2V166.4h10.2V136.6H367.2v29.7H335.3V137.7h-7.5v-3.8h7.5l.2-2.4V115.4a82.34,82.34,0,0,1,1.8-19.1c1.5-5.7,5.6-8.6,12.4-8.6H352c9,0,13.5,6.6,13.5,19.7v.2l21.7-1.6a114.4,114.4,0,0,0-2-14.3v-.2h18.1V88.4H384.2A9.47,9.47,0,0,1,384.9,91.3Zm435.3,94.9h26.6v-2H820.2ZM982,161.1h-7.4v-2.6H982v-14h-1.4V67.8H956.2c-5.5,19.9-10.4,37.3-14.8,52.4-2,7.6-3.1,11.5-3.4,11.5H927.6Q914,83.85,909.6,67.9H883.2v89.7h3.5V182h18.9v-5.4h-5.2V173h5.2V152.7h-1.4V134.4H907l-.6-2.8h21l.6,2.8H907c1.2,4.2,1.9,6.8,2,7.6h3v14.6h5.4v14h9v10.2H941v-16h6.2v-9.4h7.2V135.2h2.2l.2-.7h2.6v14.2h4.4V177h-2.5v9.1H982v-25l12,.1v-2.6H982Zm-78-26.6h-6.6v-2.8H904Zm.2-2.8c-.1-3.4-.2-5.8-.2-7v-1.4h.2c0,.3.7,3.1,2,8.4Zm33.2,3.3h-1v16.4h-3.8V140.8h-2.4c-.3,0-.9-2.1-1.8-6.4h9Zm19.2-.5H937.8l.6-2.8h19.1A15.18,15.18,0,0,1,956.6,134.5Zm2.8-2.8h-1.8l1.8-8.2h.2v.8C959.6,125.8,959.5,128.3,959.4,131.7Zm14.6,2.8H959.6v-2.8H974Zm-92.6,50.3h21.2V183H881.4Zm203.9-.6v2h26.6v-2Zm0-1.5h22v-8.3h-8.2v-3h8.2V132.5h-3.6q-18.9-62.85-19.4-64.5h-19.9L1044,135.9h-6.7v-3.5h-15.5v3.5h15.4V169H1029v16h-1.5v1.2h20V169h10.9V158.8h26.9v23.9Zm-3-36.8h-18.5q7.35-30.45,9.9-44.4v-.2h.4l6.6,31.3h1.6Zm-494-.7H582v20.6h-7a13.92,13.92,0,0,1-7.2-1.7c-3.8-1.8-5.7-8.1-5.7-18.7V133.8H551.4v-3.4h10.7V67.8H539.3v53.1H541v48.9h4.9v16.3h52.9V172.8h11.9V149.6c0-.8.1-2.1.2-3.9h-8.2v-5.3h8.2V67.8H588.2v77.4Zm253.8,37.5v-8.3h-8.2v-3h8.2V132.5h-3.5Q819.7,69.65,819.2,68H799.3l-20.4,67.9h-6.8V169H764v16h-1.6v1.2h20V169h10.8V158.8h26.9v23.9Zm-24.9-36.8H798.7q7.35-30.45,9.9-44.4v-.2h.4l6.6,31.3h1.6Zm-174.7,5.2v4.3h7.9v-4.3Zm76.1-22.5H691.3v-2.3H712v-.2a55.35,55.35,0,0,0-12.5-7.7c-8.5-3.6-13-5.7-13.5-6.2-6.5-2.8-9.7-7.2-9.7-13.4V97.1a15.44,15.44,0,0,1,.4-3c1.2-4.3,4.6-6.5,10.2-6.5h3.3a14.32,14.32,0,0,1,7,2.1,15.92,15.92,0,0,1,4,11c3.3,0,9.4-.4,18.4-1.2h.2a43.37,43.37,0,0,0-4.6-18.7c-4.5-8.4-13.2-12.6-26.3-12.6-11.4,0-19.9,2.2-25.4,6.6-6.1,5.1-9.1,12.6-9.1,22.4v1.6c0,11.8,4.8,20.9,14.5,27.3v.2h-11v2.3h22.8v9.7H699v29.5H674.4V148.3h-24v2.9h7v4.3h-7v12.4h12.4v18.5h52.5V168h6.8V132h-3.5v-3.4Zm53.5,3.8H756.6v3.5h15.5Zm-53.4-3.8H727v-2.3h-8.4Z"/></svg>
