<svg xmlns="http://www.w3.org/2000/svg" viewBox="0 0 950.68 219.29"><defs><style>.cls-1{fill:#fff;}</style></defs><title>kusama-logo-ru</title><g id="Layer_2" data-name="Layer 2"><g id="Layer_1-2" data-name="Layer 1"><path class="cls-1" d="M23.35,59.09A23.35,23.35,0,0,0,0,82.45H0v113a23.35,23.35,0,0,0,46.69,1v-114A23.36,23.36,0,0,0,23.36,59.09Z"/><path class="cls-1" d="M137.17,64.51a23.35,23.35,0,0,0-32.88,3h0L57.2,124a23.37,23.37,0,0,0,0,29.9l47.09,56.5a23.37,23.37,0,1,0,35.87-30h0L105.53,138.9l34.63-41.55A23.34,23.34,0,0,0,137.17,64.51Z"/><path class="cls-1" d="M357.9,105.79H433a23.35,23.35,0,0,0,0-46.7H348.23a23.32,23.32,0,0,0-16.51,6.84L317.59,80.06a23.24,23.24,0,0,0-6.84,16.5v84.75a23.23,23.23,0,0,0,6.84,16.51L331.72,212a23.23,23.23,0,0,0,16.51,6.84H433a23.35,23.35,0,0,0,0-46.7H357.9l-.45-.45v-65.4Z"/><path class="cls-1" d="M767.66,61.23a23.39,23.39,0,0,0-24.95,3.48L708.46,94.07l-34.3-29.36a23.34,23.34,0,0,0-38.53,17.74v113a23.36,23.36,0,0,0,46.72,0V133.16l11,9.39a23.31,23.31,0,0,0,30.37,0l10.9-9.34v62.24a23.35,23.35,0,0,0,46.69,1v-114A23.36,23.36,0,0,0,767.66,61.23Z"/><path class="cls-1" d="M277.6,59.09a23.37,23.37,0,0,0-23.35,23.36v43a25.73,25.73,0,0,0-2.51-3L195.24,66a23.35,23.35,0,0,0-33,33l56.5,56.5a23.34,23.34,0,0,0,33,0,24.93,24.93,0,0,0,2.51-3v19.62H178.73a23.35,23.35,0,1,0,0,46.7h98.9A23.35,23.35,0,0,0,301,195.45v-113a23.36,23.36,0,0,0-23.34-23.36Z"/><path class="cls-1" d="M549.75,67.5a23.4,23.4,0,0,0-17.93-8.4H489.44A23.33,23.33,0,0,0,466.1,82.44h0v113a23.33,23.33,0,0,0,23.34,23.34h58.45a23.35,23.35,0,0,0,0-46.69h-35.1V105.8h8.09l58.21,69.85v19.8a23.35,23.35,0,0,0,46.69,0V167.19a23.41,23.41,0,0,0-5.41-15Z"/><path class="cls-1" d="M945.28,152.24,874.66,67.5a23.36,23.36,0,0,0-17.93-8.4H814.35A23.33,23.33,0,0,0,791,82.44h0v113a23.33,23.33,0,0,0,23.34,23.33h58.44a23.35,23.35,0,0,0,0-46.69h-35.1v-66.3h8.09L904,175.64v19.81a23.35,23.35,0,0,0,46.69,0V167.19A23.39,23.39,0,0,0,945.28,152.24Z"/><path class="cls-1" d="M295.15,0c-2.68-.35-5.4,1.44-7.24,2.62s-5.32,4.66-6.76,5.72-5.13,2-11,5.58-29.21,18.49-29.21,18.49l6,.07L220.05,46.45h2.69l-3.88,3a8.65,8.65,0,0,0,6.31-.92v.83s32.1-12.65,38.32-9.37l-3.77,1.12c.33,0,6.44.39,6.44.39A8.53,8.53,0,0,0,270,47.74c3.68,2.44,3.75,3.75,3.75,3.75s-1.91.79-1.91,1.77a17.5,17.5,0,0,1,10.38,0s-.19-1-2.76-1.77-5.06-3.48-6.3-5a7.06,7.06,0,0,1-1.05-6.9c.89-2.29,4-3.55,10.31-6.84,7.49-3.87,9.2-6.76,10.25-9s2.63-6.7,3.5-8.8a11.42,11.42,0,0,1,3.59-5c1.12-.86,6.18-2.76,6.18-2.76s-3.86-3.3-5.12-4.29A10.88,10.88,0,0,0,295.15,0Z"/></g></g></svg>