<svg xmlns="http://www.w3.org/2000/svg" viewBox="0 0 642.39 273.4"><defs><style>.cls-1{fill:#fff;}</style></defs><title>logo-kusama-ja</title><g id="Layer_2" data-name="Layer 2"><g id="Layer_1-2" data-name="Layer 1"><path class="cls-1" d="M430.5,121.73v-.59a21.62,21.62,0,0,0-21.57-21.32H394.6a2,2,0,0,1-2.29-1.66,2.22,2.22,0,0,1,0-.63V83.93a24.82,24.82,0,1,0-49.63-1V97.53A2,2,0,0,1,341,99.82a1.67,1.67,0,0,1-.63,0H294.06a2,2,0,0,1-2.29-1.66,2.22,2.22,0,0,1,0-.63V82.64a23.55,23.55,0,1,0-47.1,0V97.53c0,1.53-.68,2.29-2,2.29H228.06a21.62,21.62,0,0,0,0,43.23c.36,0,.72,0,1.08,0H242.6c1.35,0,2,.76,2,2.29v20a23.56,23.56,0,0,0,47.1.93v-20.9a2,2,0,0,1,1.66-2.29,2.22,2.22,0,0,1,.63,0h46.33a2,2,0,0,1,2.29,1.66,1.67,1.67,0,0,1,0,.63v10.41q0,19.6-3.31,31.94a48.38,48.38,0,0,1-12,21.39q-8.64,9-22.79,13.87a166.26,166.26,0,0,1-29.24,6.59,22.13,22.13,0,0,0,4.63,43.78c.53,0,1.05,0,1.57,0q58.08-7.62,83.89-34.15,26.85-27.62,26.85-83.37v-10.5a2,2,0,0,1,1.66-2.29,2.22,2.22,0,0,1,.63,0h14.3A21.59,21.59,0,0,0,430.5,121.73Z"/><path class="cls-1" d="M638.06,76.15a14,14,0,0,0-10.18-4.33H454.61a22.28,22.28,0,0,0,0,44.55H586.06a1.51,1.51,0,0,1,1.27.76c.34.51.34.94,0,1.27Q568.49,151.25,525,175.94q-1.79,1.27-3.31-.77c-2.84-3.84-5.34-7.22-7.53-10.16h0a25.27,25.27,0,0,0-34-6.28l-1,.65a25.24,25.24,0,0,0-6.14,35q24.24,33.35,46,65a25.45,25.45,0,0,0,41.69-29c-2.21-3.24-4.76-6.93-7.66-11.13-.85-1.18-.59-2.12.77-2.8q31.32-18.33,51-39a169,169,0,0,0,32-47.6,68.68,68.68,0,0,0,5.6-28V86.33A14,14,0,0,0,638.06,76.15Z"/><path class="cls-1" d="M192.42,86.2A14,14,0,0,0,182.11,82H93.66s-7.68.28-7.72-.24a23.2,23.2,0,0,0-45.56-4.43.53.53,0,0,1-.08.17A194.48,194.48,0,0,1,4,150.5a23.08,23.08,0,0,0,4.15,30.59l.37.32a23.07,23.07,0,0,0,30.7-1.36,222.37,222.37,0,0,0,34.44-52.72,3,3,0,0,1,3.06-2h65.17c1.69,0,2.37.68,2,2q-5.61,49.65-31.44,72.56-23.9,21.18-74,29.3h0a22.15,22.15,0,0,0,3.19,44.06,21.83,21.83,0,0,0,3.23-.23,6.73,6.73,0,0,1,1-.07q76-10.44,111.8-49.62,37.68-41.25,39-126.78A14,14,0,0,0,192.42,86.2Z"/><path class="cls-1" d="M291.3,2.84A10.85,10.85,0,0,0,285.58,0c-2.68-.35-5.39,1.43-7.23,2.62s-5.29,4.67-6.77,5.67-5.12,2-11,5.59-29.17,18.46-29.17,18.46l6.05.06-27,14h2.69l-3.87,3a8.61,8.61,0,0,0,6.3-.92v.83S247.69,36.67,253.92,40L250.16,41c.33,0,6.44.39,6.44.39a8.6,8.6,0,0,0,3.88,6.24c3.68,2.43,3.74,3.75,3.74,3.75s-1.9.78-1.9,1.77a17.5,17.5,0,0,1,10.38,0s-.2-1-2.76-1.77-5.06-3.49-6.31-5a7,7,0,0,1-1-6.9c.88-2.28,4-3.55,10.31-6.83,7.49-3.87,9.19-6.77,10.24-9s2.63-6.7,3.5-8.8a11.66,11.66,0,0,1,3.6-5,48.11,48.11,0,0,1,6.18-2.76S292.55,3.83,291.3,2.84Z"/></g></g></svg>